<?xml version="1.0" standalone="no"?>
<!DOCTYPE svg PUBLIC "-//W3C//DTD SVG 20010904//EN"
 "http://www.w3.org/TR/2001/REC-SVG-20010904/DTD/svg10.dtd">
<svg version="1.0" xmlns="http://www.w3.org/2000/svg"
 width="260.000000pt" height="260.000000pt" viewBox="0 0 260.000000 260.000000"
 preserveAspectRatio="xMidYMid meet">
<metadata>
Created by potrace 1.11, written by Peter Selinger 2001-2013
</metadata>
<g transform="translate(0.000000,260.000000) scale(0.100000,-0.100000)"
fill="#000000" stroke="none">
<path d="M440 1341 l0 -321 75 0 75 0 0 124 0 124 103 4 c86 3 109 7 146 28
58 33 84 83 85 164 1 81 -25 132 -85 166 -42 24 -54 25 -221 28 l-178 4 0
-321z m305 175 c19 -12 25 -25 25 -51 0 -48 -33 -68 -113 -69 l-62 -1 -3 74
-3 74 66 -5 c36 -3 76 -13 90 -22z"/>
<path d="M1000 1340 l0 -320 75 0 75 0 0 233 0 232 77 -232 77 -233 57 0 57 0
36 103 c20 56 56 161 80 232 l44 130 1 -232 1 -233 75 0 75 0 0 320 0 321
-112 -3 -111 -3 -69 -195 c-38 -107 -70 -196 -72 -197 -3 -4 -111 296 -129
360 l-11 37 -113 0 -113 0 0 -320z"/>
<path d="M1790 1595 l0 -65 90 0 90 0 0 -255 0 -255 75 0 75 0 0 255 0 255 90
0 90 0 0 65 0 65 -255 0 -255 0 0 -65z"/>
</g>
</svg>
